<svg width="103" height="103" viewBox="0 0 103 103" fill="none" xmlns="http://www.w3.org/2000/svg">
<g clip-path="url(#clip0_132_522)">
<path d="M30.7868 24.275C55.1208 22.2528 75.0495 26.3141 80.789 40.3858C86.5284 54.4576 83.9776 72.3473 74.7726 80.537C65.5676 88.7266 52.0245 94.8185 47.6611 80.5537C43.2978 66.289 48.4331 59.5761 36.157 52.8046C23.8809 46.033 18.0743 40.6376 19.1903 35.2421C20.3064 29.8467 25.1732 24.7449 30.7868 24.275Z" stroke="white" stroke-width="2.02871" stroke-linecap="round" stroke-linejoin="round"/>
<path d="M51.4453 29.8975L53.8032 35.5278" stroke="white" stroke-width="2.02871" stroke-linecap="round" stroke-linejoin="round"/>
<path d="M68.3784 49.8428L76.0478 52.788" stroke="white" stroke-width="2.02871" stroke-linecap="round" stroke-linejoin="round"/>
<path d="M64.5439 61.8672L72.163 69.2849" stroke="white" stroke-width="2.02871" stroke-linecap="round" stroke-linejoin="round"/>
<path d="M57.6382 72.6074V80.537" stroke="white" stroke-width="2.02871" stroke-linecap="round" stroke-linejoin="round"/>
<path d="M81.46 42.1567L87.3001 40.3862" stroke="white" stroke-width="2.02871" stroke-linecap="round" stroke-linejoin="round"/>
<path d="M83.8013 58.2842H88.8359" stroke="white" stroke-width="2.02871" stroke-linecap="round" stroke-linejoin="round"/>
<path d="M80.7891 71.9365L84.3804 74.3951" stroke="white" stroke-width="2.02871" stroke-linecap="round" stroke-linejoin="round"/>
<path d="M74.7725 80.5371L77.3317 87.4345" stroke="white" stroke-width="2.02871" stroke-linecap="round" stroke-linejoin="round"/>
<path d="M61.2212 89.1211L62.7568 95.6241" stroke="white" stroke-width="2.02871" stroke-linecap="round" stroke-linejoin="round"/>
<path d="M50.4469 85.9663L45.6724 89.1213" stroke="white" stroke-width="2.02871" stroke-linecap="round" stroke-linejoin="round"/>
<path d="M46.411 75.4185L39.48 76.568" stroke="white" stroke-width="2.02871" stroke-linecap="round" stroke-linejoin="round"/>
<path d="M37.919 53.8369L33.5977 59.5596" stroke="white" stroke-width="2.02871" stroke-linecap="round" stroke-linejoin="round"/>
<path d="M26.7086 46.9141L24.6528 53.8367" stroke="white" stroke-width="2.02871" stroke-linecap="round" stroke-linejoin="round"/>
<path d="M21.4307 42.1567L16.2114 44.9845" stroke="white" stroke-width="2.02871" stroke-linecap="round" stroke-linejoin="round"/>
<path d="M20.0042 32.7085L14.1641 29.8975" stroke="white" stroke-width="2.02871" stroke-linecap="round" stroke-linejoin="round"/>
<path d="M27.6736 25.0221L24.6528 17.8813" stroke="white" stroke-width="2.02871" stroke-linecap="round" stroke-linejoin="round"/>
<path d="M39.48 23.8136V16.8574" stroke="white" stroke-width="2.02871" stroke-linecap="round" stroke-linejoin="round"/>
<path d="M51.4453 23.7884L53.8032 16.8574" stroke="white" stroke-width="2.02871" stroke-linecap="round" stroke-linejoin="round"/>
<path d="M64.5439 26.8514L66.8431 20.3315" stroke="white" stroke-width="2.02871" stroke-linecap="round" stroke-linejoin="round"/>
<path d="M75.2759 32.7085L81.4601 29.8975" stroke="white" stroke-width="2.02871" stroke-linecap="round" stroke-linejoin="round"/>
<path d="M35.7627 31.3071L42.9454 35.5278" stroke="white" stroke-width="2.02871" stroke-linecap="round" stroke-linejoin="round"/>
<path d="M37.9189 46.9141H46.4107" stroke="white" stroke-width="2.02871" stroke-linecap="round" stroke-linejoin="round"/>
<path d="M89.9099 1.55225H13.0899C6.71784 1.55225 1.55225 6.71784 1.55225 13.0899V89.9099C1.55225 96.282 6.71784 101.448 13.0899 101.448H89.9099C96.282 101.448 101.448 96.282 101.448 89.9099V13.0899C101.448 6.71784 96.282 1.55225 89.9099 1.55225Z" stroke="white" stroke-width="2.02871" stroke-linecap="round" stroke-linejoin="round"/>
<path d="M97.7389 5.26123L5.26123 97.7389" stroke="white" stroke-width="2.02871" stroke-linecap="round" stroke-linejoin="round"/>
</g>
<defs>
<clipPath id="clip0_132_522">
<rect width="103" height="103" fill="white"/>
</clipPath>
</defs>
</svg>
