<svg width="103" height="103" viewBox="0 0 103 103" fill="none" xmlns="http://www.w3.org/2000/svg">
<g clip-path="url(#clip0_132_526)">
<path d="M89.9099 1.55225H13.0899C6.71784 1.55225 1.55225 6.71784 1.55225 13.0899V89.9099C1.55225 96.282 6.71784 101.448 13.0899 101.448H89.9099C96.282 101.448 101.448 96.282 101.448 89.9099V13.0899C101.448 6.71784 96.282 1.55225 89.9099 1.55225Z" stroke="white" stroke-width="2.02871" stroke-linecap="round" stroke-linejoin="round"/>
<path d="M76.5934 46.2012L88.6093 52.7881L51.5042 73.1196L14.3906 52.7881L26.4066 46.2012" stroke="white" stroke-width="2.02871" stroke-linecap="round" stroke-linejoin="round"/>
<path d="M88.6093 61.8672L51.5042 82.1903L14.3906 61.8672L22.6726 57.3276" stroke="white" stroke-width="2.02871" stroke-linecap="round" stroke-linejoin="round"/>
<path d="M55.5655 20.6001L53.9544 22.916C51.434 26.527 49.8383 30.7013 49.3073 35.0727C48.7762 39.4441 49.326 43.8791 50.9085 47.9884L56.3375 62.0938" stroke="white" stroke-width="2.02871" stroke-linecap="round" stroke-linejoin="round"/>
<path d="M44.9761 24.7534L55.9348 19.5845L61.1037 30.5432" stroke="white" stroke-width="2.02871" stroke-linecap="round" stroke-linejoin="round"/>
<path d="M68.8065 33.7485L67.8835 35.0827C66.4281 37.1719 65.5065 39.5858 65.1993 42.1134C64.8921 44.641 65.2087 47.2054 66.1213 49.5824L69.2596 57.7469" stroke="white" stroke-width="2.02871" stroke-linecap="round" stroke-linejoin="round"/>
<path d="M62.6895 36.1488L69.0247 33.1616L72.0119 39.4969" stroke="white" stroke-width="2.02871" stroke-linecap="round" stroke-linejoin="round"/>
<path d="M40.1848 33.7485L39.2534 35.0827C37.7946 37.1704 36.871 39.5845 36.5638 42.1128C36.2565 44.641 36.575 47.2061 37.4913 49.5824L40.6295 57.7469" stroke="white" stroke-width="2.02871" stroke-linecap="round" stroke-linejoin="round"/>
<path d="M34.0591 36.1488L40.3943 33.1616L43.3815 39.4969" stroke="white" stroke-width="2.02871" stroke-linecap="round" stroke-linejoin="round"/>
</g>
<defs>
<clipPath id="clip0_132_526">
<rect width="103" height="103" fill="white"/>
</clipPath>
</defs>
</svg>
