<svg width="790" height="530" viewBox="0 0 790 530" fill="none" xmlns="http://www.w3.org/2000/svg">
<path d="M395 405C367.31 405.005 340.24 396.798 317.214 381.417C294.188 366.036 276.24 344.173 265.641 318.592C255.041 293.01 252.265 264.86 257.664 237.701C263.064 210.543 276.396 185.595 295.974 166.013C315.553 146.431 340.498 133.096 367.656 127.692C394.814 122.288 422.965 125.059 448.548 135.655C474.13 146.25 495.997 164.194 511.381 187.218C526.766 210.241 534.977 237.31 534.977 265C534.935 302.113 520.174 337.695 493.933 363.94C467.692 390.185 432.113 404.952 395 405ZM395 182.166C378.61 182.161 362.588 187.017 348.958 196.12C335.329 205.223 324.706 218.163 318.431 233.304C312.157 248.445 310.515 265.107 313.711 281.182C316.907 297.257 324.799 312.023 336.388 323.612C347.977 335.201 362.743 343.093 378.818 346.289C394.893 349.485 411.555 347.843 426.696 341.569C441.837 335.294 454.777 324.671 463.88 311.042C472.983 297.412 477.839 281.39 477.834 265C477.804 243.04 469.067 221.989 453.539 206.461C438.011 190.933 416.96 182.196 395 182.166Z" fill="#888C95"/>
<path d="M394.863 529.663C318.133 529.426 242.762 509.394 176.04 471.502C109.318 433.611 53.5037 379.142 13.9942 313.366C5.24314 298.75 0.621338 282.035 0.621338 265C0.621338 247.965 5.24314 231.249 13.9942 216.634C53.0899 150.501 108.804 95.7445 175.605 57.8011C242.406 19.8577 317.97 0.0474027 394.794 0.337148C471.543 0.606625 546.927 20.6492 613.676 58.5315C680.424 96.4139 736.285 150.858 775.868 216.611C784.631 231.231 789.259 247.956 789.259 265C789.259 282.044 784.631 298.769 775.868 313.389C736.329 379.167 680.488 433.633 613.744 471.519C547 509.406 471.61 529.432 394.863 529.663ZM394.863 57.48C327.92 57.2404 262.079 74.5137 203.875 107.585C145.671 140.656 97.1297 188.376 63.0685 246.006C59.674 251.777 57.884 258.35 57.884 265.046C57.884 271.741 59.674 278.315 63.0685 284.086C97.4857 341.389 146.108 388.841 204.233 421.852C262.358 454.862 328.018 472.314 394.863 472.52C461.847 472.835 527.746 455.606 586.004 422.547C644.262 389.488 692.849 341.751 726.931 284.086C730.332 278.308 732.126 271.727 732.126 265.023C732.126 258.319 730.332 251.737 726.931 245.96C692.827 188.311 644.237 140.585 585.984 107.521C527.732 74.4574 461.844 57.2061 394.863 57.48Z" fill="#888C95"/>
</svg>
