<svg width="102" height="103" viewBox="0 0 102 103" fill="none" xmlns="http://www.w3.org/2000/svg">
<g clip-path="url(#clip0_132_534)">
<path d="M90.7489 62.6726C94.2689 62.6726 97.1224 59.7912 97.1224 56.2367C97.1224 52.6822 94.2689 49.8008 90.7489 49.8008C87.229 49.8008 84.3755 52.6822 84.3755 56.2367C84.3755 59.7912 87.229 62.6726 90.7489 62.6726Z" stroke="white" stroke-width="2.02871" stroke-linecap="round" stroke-linejoin="round"/>
<path d="M48.1371 96.4968C51.6571 96.4968 54.5106 93.6154 54.5106 90.0609C54.5106 86.5065 51.6571 83.625 48.1371 83.625C44.6172 83.625 41.7637 86.5065 41.7637 90.0609C41.7637 93.6154 44.6172 96.4968 48.1371 96.4968Z" stroke="white" stroke-width="2.02871" stroke-linecap="round" stroke-linejoin="round"/>
<path d="M35.3988 49.3059C38.9188 49.3059 41.7723 46.4245 41.7723 42.87C41.7723 39.3155 38.9188 36.4341 35.3988 36.4341C31.8789 36.4341 29.0254 39.3155 29.0254 42.87C29.0254 46.4245 31.8789 49.3059 35.3988 49.3059Z" stroke="white" stroke-width="2.02871" stroke-linecap="round" stroke-linejoin="round"/>
<path d="M15.8298 58.771C17.7298 58.771 19.27 57.2157 19.27 55.2971C19.27 53.3786 17.7298 51.8232 15.8298 51.8232C13.9299 51.8232 12.3896 53.3786 12.3896 55.2971C12.3896 57.2157 13.9299 58.771 15.8298 58.771Z" stroke="white" stroke-width="2.02871" stroke-linecap="round" stroke-linejoin="round"/>
<path d="M59.5466 73.8745C61.4466 73.8745 62.9868 72.3192 62.9868 70.4007C62.9868 68.4821 61.4466 66.9268 59.5466 66.9268C57.6467 66.9268 56.1064 68.4821 56.1064 70.4007C56.1064 72.3192 57.6467 73.8745 59.5466 73.8745Z" stroke="white" stroke-width="2.02871" stroke-linecap="round" stroke-linejoin="round"/>
<path d="M75.9743 53.9209C77.8743 53.9209 79.4145 52.3656 79.4145 50.447C79.4145 48.5285 77.8743 46.9731 75.9743 46.9731C74.0744 46.9731 72.5342 48.5285 72.5342 50.447C72.5342 52.3656 74.0744 53.9209 75.9743 53.9209Z" stroke="white" stroke-width="2.02871" stroke-linecap="round" stroke-linejoin="round"/>
<path d="M79.4065 83.9019C81.3064 83.9019 82.8466 82.3466 82.8466 80.428C82.8466 78.5094 81.3064 76.9541 79.4065 76.9541C77.5065 76.9541 75.9663 78.5094 75.9663 80.428C75.9663 82.3466 77.5065 83.9019 79.4065 83.9019Z" stroke="white" stroke-width="2.02871" stroke-linecap="round" stroke-linejoin="round"/>
<path d="M89.0369 1.55225H12.9628C6.65255 1.55225 1.53711 6.71784 1.53711 13.0899V89.9099C1.53711 96.282 6.65255 101.448 12.9628 101.448H89.0369C95.3471 101.448 100.463 96.282 100.463 89.9099V13.0899C100.463 6.71784 95.3471 1.55225 89.0369 1.55225Z" stroke="white" stroke-width="2.02871" stroke-linecap="round" stroke-linejoin="round"/>
<path d="M2.25195 76.9543C7.13846 68.2015 14.2476 60.9225 22.8469 55.8672C31.4462 50.812 41.2247 48.1633 51.175 48.1941C61.1253 48.2249 70.8876 50.934 79.4561 56.0423C88.0245 61.1507 95.0894 68.4735 99.9227 77.2564" stroke="white" stroke-width="2.02871" stroke-linecap="round" stroke-linejoin="round"/>
<path d="M96.7898 5.26123L5.20996 97.7389" stroke="white" stroke-width="2.02871" stroke-linecap="round" stroke-linejoin="round"/>
</g>
<defs>
<clipPath id="clip0_132_534">
<rect width="102" height="103" fill="white"/>
</clipPath>
</defs>
</svg>
