<svg width="103" height="103" viewBox="0 0 103 103" fill="none" xmlns="http://www.w3.org/2000/svg">
<g clip-path="url(#clip0_132_523)">
<path d="M68.8066 75.7626C68.8066 65.9786 51.1099 40.4111 51.1099 40.4111C51.1099 40.4111 33.4048 65.9786 33.4048 75.7626C33.5056 80.3904 35.4147 84.7948 38.7233 88.0321C42.0319 91.2694 46.4767 93.0823 51.1057 93.0823C55.7346 93.0823 60.1795 91.2694 63.4881 88.0321C66.7966 84.7948 68.7058 80.3904 68.8066 75.7626Z" stroke="white" stroke-width="1.50219" stroke-linecap="round" stroke-linejoin="round"/>
<path d="M38.6909 75.7124C38.6909 78.9282 39.9684 82.0122 42.2423 84.2861C44.5162 86.56 47.6002 87.8374 50.816 87.8374" stroke="white" stroke-width="1.50219" stroke-linecap="round" stroke-linejoin="round"/>
<path d="M50.8159 10.623V18.8798C50.8149 20.3012 51.2611 21.6868 52.0914 22.8404L53.4591 24.7619C53.9993 25.5169 54.2961 26.4189 54.3096 27.3472C54.323 28.2754 54.0527 29.1856 53.5346 29.956L51.7389 32.6411C51.1371 33.5367 50.8157 34.5913 50.8159 35.6703V36.2409" stroke="white" stroke-width="1.40035" stroke-linecap="round" stroke-linejoin="round"/>
<path d="M42.249 18.1078L50.8163 9.54053L59.3835 18.1078" stroke="white" stroke-width="1.40035" stroke-linecap="round" stroke-linejoin="round"/>
<path d="M69.6455 26.3228V34.5795C69.6444 36.0035 70.0906 37.3918 70.921 38.5485L72.2887 40.4617C72.8308 41.2175 73.1286 42.121 73.1421 43.051C73.1556 43.981 72.8841 44.8929 72.3642 45.6641L70.5685 48.3492C69.9643 49.2437 69.6428 50.299 69.6455 51.3784V51.949" stroke="white" stroke-width="1.40035" stroke-linecap="round" stroke-linejoin="round"/>
<path d="M61.0698 33.8158L69.6371 25.2485L78.2043 33.8158" stroke="white" stroke-width="1.40035" stroke-linecap="round" stroke-linejoin="round"/>
<path d="M33.3628 34.8901V43.1469C33.3617 44.5708 33.8078 45.9592 34.6382 47.1159L36.006 49.029C36.5458 49.7858 36.8422 50.689 36.8557 51.6185C36.8692 52.5479 36.5991 53.4594 36.0815 54.2315L34.2858 56.9166C33.6816 57.8111 33.3601 58.8664 33.3628 59.9458V60.5164" stroke="white" stroke-width="1.40035" stroke-linecap="round" stroke-linejoin="round"/>
<path d="M24.7954 42.3832L33.3627 33.8159L41.9299 42.3832" stroke="white" stroke-width="1.40035" stroke-linecap="round" stroke-linejoin="round"/>
<path d="M89.9099 1.55225H13.0899C6.71784 1.55225 1.55225 6.71784 1.55225 13.0899V89.9099C1.55225 96.282 6.71784 101.448 13.0899 101.448H89.9099C96.282 101.448 101.448 96.282 101.448 89.9099V13.0899C101.448 6.71784 96.282 1.55225 89.9099 1.55225Z" stroke="white" stroke-width="1.80697" stroke-linecap="round" stroke-linejoin="round"/>
</g>
<defs>
<clipPath id="clip0_132_523">
<rect width="103" height="103" fill="white"/>
</clipPath>
</defs>
</svg>
