<svg width="103" height="103" viewBox="0 0 103 103" fill="none" xmlns="http://www.w3.org/2000/svg">
<g clip-path="url(#clip0_132_527)">
<path d="M88.6093 58.5527L51.5042 78.8842L14.3906 58.5527L26.4066 51.9741" stroke="white" stroke-width="2.02871" stroke-linecap="round" stroke-linejoin="round"/>
<path d="M88.6093 67.6318L51.5042 87.9633L14.3906 67.6318L22.6726 63.0923" stroke="white" stroke-width="2.02871" stroke-linecap="round" stroke-linejoin="round"/>
<path d="M72.0372 52.9055L51.2945 64.2669L30.3589 52.7964" stroke="white" stroke-width="2.02871" stroke-linecap="round" stroke-linejoin="round"/>
<path d="M69.931 62.0016L72.6497 52.6791L63.3188 49.9604" stroke="white" stroke-width="2.02871" stroke-linecap="round" stroke-linejoin="round"/>
<path d="M62.6306 39.0853C62.6306 32.9347 51.504 16.8574 51.504 16.8574C51.504 16.8574 40.3691 32.9347 40.3691 39.0853C40.4487 41.9844 41.6564 44.7381 43.7351 46.7605C45.8138 48.783 48.5996 49.9146 51.4999 49.9146C54.4001 49.9146 57.1859 48.783 59.2646 46.7605C61.3433 44.7381 62.551 41.9844 62.6306 39.0853Z" stroke="white" stroke-width="2.02871" stroke-linecap="round" stroke-linejoin="round"/>
<path d="M43.7173 39.0518C43.7173 41.0747 44.5209 43.0148 45.9513 44.4452C47.3817 45.8756 49.3218 46.6792 51.3447 46.6792" stroke="white" stroke-width="2.02871" stroke-linecap="round" stroke-linejoin="round"/>
<path d="M89.9099 1.55225H13.0899C6.71784 1.55225 1.55225 6.71784 1.55225 13.0899V89.9099C1.55225 96.282 6.71784 101.448 13.0899 101.448H89.9099C96.282 101.448 101.448 96.282 101.448 89.9099V13.0899C101.448 6.71784 96.282 1.55225 89.9099 1.55225Z" stroke="white" stroke-width="2.02871" stroke-linecap="round" stroke-linejoin="round"/>
</g>
<defs>
<clipPath id="clip0_132_527">
<rect width="103" height="103" fill="white"/>
</clipPath>
</defs>
</svg>
