<svg width="103" height="103" viewBox="0 0 103 103" fill="none" xmlns="http://www.w3.org/2000/svg">
<g clip-path="url(#clip0_132_535)">
<path d="M75.813 36.3247C75.813 36.3247 64.9886 68.9575 20.793 68.8064" stroke="white" stroke-width="2.02871" stroke-linecap="round" stroke-linejoin="round"/>
<path d="M34.9653 63.9228L44.1955 50.6482C44.2426 50.5842 44.306 50.534 44.3791 50.5028C44.4522 50.4716 44.5324 50.4605 44.6112 50.4708C44.69 50.4811 44.7646 50.5123 44.8273 50.5612C44.8899 50.6101 44.9383 50.6749 44.9675 50.7489L47.4848 57.747L50.3461 49.507C51.0951 47.3735 52.5214 45.5435 54.4074 44.2962L57.0589 42.5508C60.1057 40.5297 62.7752 37.9908 64.9465 35.0493L68.7477 29.8972C70.4872 27.8717 72.4084 26.0095 74.4871 24.3339C75.6037 23.3788 76.9627 22.7512 78.4138 22.5206C79.865 22.29 81.3516 22.4654 82.7092 23.0273C84.0669 23.5893 85.2425 24.516 86.1061 25.7048C86.9697 26.8935 87.4875 28.2981 87.6023 29.7629L85.4542 42.3998C85.0844 44.1727 84.1813 45.7901 82.8659 47.035C81.5505 48.2799 79.8858 49.0927 78.0953 49.3644L74.3109 49.9517L80.8391 53.7025L76.2157 60.1552C72.1734 65.8166 66.3999 70.0101 59.7659 72.1034C53.132 74.1966 45.9972 74.0761 39.4378 71.76" stroke="white" stroke-width="2.02871" stroke-linecap="round" stroke-linejoin="round"/>
<path d="M28.437 68.8066C28.437 68.8066 33.1024 71.7351 34.7806 74.9069" stroke="white" stroke-width="2.02871" stroke-linecap="round" stroke-linejoin="round"/>
<path d="M30.2078 62.0938C30.2078 62.0938 29.3183 67.3214 27.4136 68.429" stroke="white" stroke-width="2.02871" stroke-linecap="round" stroke-linejoin="round"/>
<path d="M89.9099 1.55225H13.0899C6.71784 1.55225 1.55225 6.71784 1.55225 13.0899V89.9099C1.55225 96.282 6.71784 101.448 13.0899 101.448H89.9099C96.282 101.448 101.448 96.282 101.448 89.9099V13.0899C101.448 6.71784 96.282 1.55225 89.9099 1.55225Z" stroke="white" stroke-width="2.02871" stroke-linecap="round" stroke-linejoin="round"/>
</g>
<defs>
<clipPath id="clip0_132_535">
<rect width="103" height="103" fill="white"/>
</clipPath>
</defs>
</svg>
